<?xml version="1.0" encoding="iso-8859-1"?>
<!DOCTYPE svg PUBLIC "-//W3C//DTD SVG 1.1//EN" "http://www.w3.org/Graphics/SVG/1.1/DTD/svg11.dtd">
<svg 
 version="1.1" xmlns="http://www.w3.org/2000/svg" xmlns:xlink="http://www.w3.org/1999/xlink" x="0px" y="0px" width="512px"
	 height="512px" viewBox="0 0 512 512" style="enable-background:new 0 0 512 512;" xml:space="preserve"
><g id="afcae5a789ccd549f9c6e2a2f80fb1fa"><g></g><path style="display: inline;" d="M440.657,109.791c0.675-0.75,1.335-1.525,1.968-2.338l19.913-25.607
		c11.002-14.149,11.321-32.299,0.719-40.549l-38.421-29.884c-10.606-8.246-28.121-3.474-39.128,10.674l-19.914,25.607
		c-0.627,0.805-1.092,1.661-1.653,2.49c-18.606-9.249-38.539-16.223-59.474-20.474v-4.876c0-13.441-10.894-24.333-24.334-24.333
		h-48.667c-13.44,0-24.333,10.893-24.333,24.333v4.876c-20.936,4.251-40.867,11.226-59.474,20.474
		c-0.561-0.83-1.027-1.685-1.654-2.49l-19.914-25.607C115.285,7.938,97.771,3.166,87.164,11.412l-38.42,29.884
		c-10.604,8.25-10.285,26.4,0.717,40.549l19.914,25.607c0.634,0.813,1.293,1.588,1.967,2.338
		c-36.543,42.569-58.675,97.871-58.675,158.376C12.667,402.556,121.61,511.5,256,511.5s243.333-108.944,243.333-243.333
		C499.333,207.662,477.2,152.36,440.657,109.791z M256,462.833c-107.337,0-194.667-87.329-194.667-194.666
		C61.333,160.83,148.663,73.5,256,73.5c107.337,0,194.667,87.33,194.667,194.667C450.667,375.504,363.337,462.833,256,462.833z
		 M280.333,243.833h24.334V292.5h-73v-24.333v-24.334V122.167h48.667V243.833z"></path></g></svg>